<svg xmlns="http://www.w3.org/2000/svg" width="40" height="40" viewBox="0 0 40 40"><defs><style>.a{fill:#1a62f5;}.b{fill:#fff;}</style></defs><circle class="a" cx="20" cy="20" r="20"/><g transform="translate(13 13)"><path class="b" d="M14.143,10.275,12.19,8.321a1.3,1.3,0,0,0-2.163.488,1.33,1.33,0,0,1-1.535.837A6.025,6.025,0,0,1,4.863,6.018,1.265,1.265,0,0,1,5.7,4.483,1.3,1.3,0,0,0,6.189,2.32L4.235.366a1.394,1.394,0,0,0-1.884,0L1.025,1.692c-1.326,1.4.14,5.094,3.419,8.373s6.978,4.815,8.373,3.419l1.326-1.326A1.394,1.394,0,0,0,14.143,10.275Z" transform="translate(-0.539 0)"/></g></svg>