<svg xmlns="http://www.w3.org/2000/svg" width="30" height="30" viewBox="0 0 30 30"><defs><style>.a{fill:#fff;stroke:#585858;stroke-width:1.4px;}.b{fill:#585858;}.c{stroke:none;}.d{fill:none;}</style></defs><g transform="translate(-1185 -975)"><g class="a" transform="translate(1185 975)"><circle class="c" cx="15" cy="15" r="15"/><circle class="d" cx="15" cy="15" r="14.3"/></g><g transform="translate(1195 983)"><path class="b" d="M8.908,1.582h-1.5V1.5A1.506,1.506,0,0,0,5.9,0H3.823a1.506,1.506,0,0,0-1.5,1.5v.079H.82A.82.82,0,0,0,0,2.4v.625A.273.273,0,0,0,.273,3.3H9.455a.273.273,0,0,0,.273-.273V2.4a.82.82,0,0,0-.82-.82ZM3.14,1.5A.684.684,0,0,1,3.823.82H5.9a.684.684,0,0,1,.684.684v.079H3.14Zm0,0" transform="translate(0 0)"/><path class="b" d="M12.949,150.738l.663,9.5a.41.41,0,0,0,.409.382H20.9a.41.41,0,0,0,.409-.382l.663-9.5Zm2.887,8.483h-.018a.41.41,0,0,1-.409-.393l-.273-6.426a.41.41,0,1,1,.82-.035l.273,6.426a.41.41,0,0,1-.392.427Zm2.033-.41a.41.41,0,0,1-.82,0v-6.426a.41.41,0,0,1,.82,0Zm1.64.017a.41.41,0,0,1-.41.393h-.018a.41.41,0,0,1-.392-.427l.273-6.426a.41.41,0,0,1,.82.035Zm0,0" transform="translate(-12.595 -146.616)"/></g></g></svg>