<svg xmlns="http://www.w3.org/2000/svg" width="30" height="30" viewBox="0 0 30 30"><defs><style>.a{fill:#fff;stroke:#585858;stroke-width:1.4px;}.b{fill:#585858;}.c{stroke:none;}.d{fill:none;}</style></defs><g transform="translate(-1185 -975)"><g class="a" transform="translate(1185 975)"><circle class="c" cx="15" cy="15" r="15"/><circle class="d" cx="15" cy="15" r="14.3"/></g><g transform="translate(1193 983)"><g transform="translate(3.444 3.584)"><g transform="translate(0 0)"><rect class="b" width="10.71" height="1.973" transform="translate(0 7.573) rotate(-45)"/></g></g><g transform="translate(9.622 0)"><path class="b" d="M355.583.7a2.4,2.4,0,0,0-3.392,0l-.282.282L355.3,4.378l.283-.282a2.4,2.4,0,0,0,0-3.392Z" transform="translate(-351.908 0)"/></g><g transform="translate(1.447 1.587)"><g transform="translate(0 0)"><rect class="b" width="10.71" height="1.973" transform="translate(0 7.573) rotate(-45)"/></g></g><g transform="translate(0 9.89)"><path class="b" d="M.973,361.685l-.958,3.574a.426.426,0,0,0,.521.521l3.574-.958Z" transform="translate(-0.001 -361.685)"/></g></g></g></svg>