<svg xmlns="http://www.w3.org/2000/svg" width="40" height="40" viewBox="0 0 40 40"><defs><style>.a{fill:#1a62f5;}.b{fill:#fff;}</style></defs><circle class="a" cx="20" cy="20" r="20"/><g transform="translate(10 13)"><path class="b" d="M165.911,48.872c0-.022.015-.044.014-.067l-6,5.777,5.989,5.593c0-.04-.007-.08-.007-.121Z" transform="translate(-146.277 -47.464)"/><path class="b" d="M22.807,126.9l-2.448,2.355a.641.641,0,0,1-.88.007l-2.441-2.275L11.01,132.8a1.391,1.391,0,0,0,.469.093H28.353a1.388,1.388,0,0,0,.674-.186Z" transform="translate(-10.07 -118.892)"/><path class="b" d="M15.445,42.106,24.6,33.291a1.387,1.387,0,0,0-.707-.206H7.015a1.391,1.391,0,0,0-.885.33Z" transform="translate(-5.607 -33.085)"/><path class="b" d="M0,52.1V63.068a1.393,1.393,0,0,0,.06.363L6.014,57.7Z" transform="translate(0 -50.477)"/></g></svg>