<svg xmlns="http://www.w3.org/2000/svg" width="11.667" height="14" viewBox="0 0 11.667 14"><g transform="translate(-58.662 0)"><g transform="translate(47.662 0)"><path d="M53.745,3.5a3.8,3.8,0,0,1,.523-2.155A.292.292,0,0,0,54.243.96L53.368.085a.292.292,0,0,0-.346-.05,5.169,5.169,0,0,1-2.194.548A5.2,5.2,0,0,1,48.635.036a.294.294,0,0,0-.279,0,5.169,5.169,0,0,1-2.194.548A5.2,5.2,0,0,1,43.968.036a.292.292,0,0,0-.345.05l-.875.875a.294.294,0,0,0-.026.383A3.811,3.811,0,0,1,43.245,3.5a6.531,6.531,0,0,1-.229,1.638,11.625,11.625,0,0,0-.354,3.029c0,2.771,2.155,4.041,5.7,5.8A.3.3,0,0,0,48.5,14a.3.3,0,0,0,.129-.03c3.549-1.762,5.7-3.032,5.7-5.8a11.648,11.648,0,0,0-.354-3.029A6.551,6.551,0,0,1,53.745,3.5ZM51.618,6.04,50.277,7.382l.524,2.1a.289.289,0,0,1,.039.146.3.3,0,0,1-.3.292h-.006a.292.292,0,0,1-.145-.038L48.5,8.795,46.6,9.878a.292.292,0,0,1-.428-.324l.543-2.173L45.372,6.039a.292.292,0,0,1,.165-.5l1.879-.268.811-1.891a.3.3,0,0,1,.536,0l.811,1.891,1.879.268a.29.29,0,0,1,.235.2A.294.294,0,0,1,51.618,6.04Z" transform="translate(-31.662 0)"/></g></g></svg>