<svg height="512pt" viewBox="0 0 512 512" width="512pt" xmlns="http://www.w3.org/2000/svg"><path d="m512 256c0 141.386719-114.613281 256-256 256s-256-114.613281-256-256 114.613281-256 256-256 256 114.613281 256 256zm0 0" fill="#e4edfb"/><path d="m452.640625 419.679688c-47.039063 56.320312-117.761719 92.320312-196.640625 92.320312s-149.601562-36-196.640625-92.320312l116.640625-31.839844v-30.558594l-48-64v-101.28125c0-34.238281 13.28125-66.398438 37.441406-90.558594s56.320313-37.441406 90.558594-37.441406c70.558594 0 128 57.441406 128 128v101.28125l-48 64v30.558594zm0 0" fill="#53bdf2"/><path d="m288 288h-64v-96h32v64h32zm0 0" fill="#40a2e7"/><path d="m288 112h32v32h-32zm0 0" fill="#fff"/></svg>