<svg xmlns="http://www.w3.org/2000/svg" width="40" height="40" viewBox="0 0 40 40"><defs><style>.a,.c{fill:#cecece;}.b{fill:#fff;}.c{font-size:9px;font-family:Montserrat-Bold, Montserrat;font-weight:700;}</style></defs><circle class="a" cx="20" cy="20" r="20"/><g transform="translate(14 12)"><g transform="translate(0 0)"><path class="b" d="M267.7,34.35l-5.32-2.28a.763.763,0,0,0-.6,0l-5.32,2.28a.758.758,0,0,0-.459.7v3.04c0,4.182,1.546,6.626,5.7,9.02a.764.764,0,0,0,.757,0c4.156-2.388,5.7-4.832,5.7-9.02v-3.04A.758.758,0,0,0,267.7,34.35Z" transform="translate(-256 -32.008)"/><text class="c" transform="translate(5.8 10.8)"><tspan x="-2.871" y="0">$</tspan></text></g></g></svg>