<svg xmlns="http://www.w3.org/2000/svg" xmlns:xlink="http://www.w3.org/1999/xlink" width="36" height="21" viewBox="0 0 36 21"><defs><style>.a{fill:#a7a7a7;}.b{clip-path:url(#a);}.c{fill:#f5f5f5;}.d{fill:#ff4b55;}.e{fill:#41479b;}</style><clipPath id="a"><rect class="a" width="36" height="21" rx="4" transform="translate(160 1026)"/></clipPath></defs><g class="b" transform="translate(-160 -1026)"><g transform="translate(160 1026)"><path class="c" d="M35.366,30.949H.62A.635.635,0,0,1,0,30.3V6.964a.635.635,0,0,1,.62-.648H35.366a.635.635,0,0,1,.62.648V30.3A.635.635,0,0,1,35.366,30.949Z" transform="translate(0 -6.316)"/><path class="d" d="M35.987,7.978H0V6.884a.6.6,0,0,1,.62-.569H35.366a.6.6,0,0,1,.62.569V7.978Z" transform="translate(0 -6.316)"/><rect class="d" width="35.987" height="1.662" transform="translate(0 7.657)"/><rect class="d" width="35.987" height="1.662" transform="translate(0 3.828)"/><path class="d" d="M35.987,19.055H.62A.6.6,0,0,1,0,18.486V17.393H35.987Z" transform="translate(0 -5.907)"/><rect class="d" width="35.987" height="1.662" transform="translate(0 19.143)"/><path class="d" d="M35.366,30.132H.62A.6.6,0,0,1,0,29.563V28.47H35.987v1.094A.6.6,0,0,1,35.366,30.132Z" transform="translate(0 -5.498)"/><rect class="d" width="35.987" height="1.662" transform="translate(0 15.315)"/><path class="e" d="M14.785,6.316H.569A.569.569,0,0,0,0,6.884v10.5a.569.569,0,0,0,.569.569H14.785a.569.569,0,0,0,.569-.569V6.884A.569.569,0,0,0,14.785,6.316Z" transform="translate(0 -6.316)"/><g transform="translate(0.918 1.269)"><path class="c" d="M1.7,7.761l.126.377.4,0a.054.054,0,0,1,.031.1l-.32.236.12.379a.054.054,0,0,1-.082.06l-.324-.231-.324.231a.054.054,0,0,1-.082-.06l.12-.379-.32-.236a.054.054,0,0,1,.031-.1l.4,0L1.6,7.761A.054.054,0,0,1,1.7,7.761Z" transform="translate(-1.02 -7.725)"/><path class="c" d="M1.7,9.955l.126.377.4,0a.054.054,0,0,1,.031.1l-.32.236.12.379a.054.054,0,0,1-.082.06l-.324-.231-.324.231a.054.054,0,0,1-.082-.06l.12-.379-.32-.236a.054.054,0,0,1,.031-.1l.4,0L1.6,9.955A.054.054,0,0,1,1.7,9.955Z" transform="translate(-1.02 -7.943)"/><path class="c" d="M1.7,12.148l.126.377.4,0a.054.054,0,0,1,.031.1l-.32.236.12.379a.054.054,0,0,1-.082.06l-.324-.231-.324.231a.054.054,0,0,1-.082-.06l.12-.379-.32-.236a.054.054,0,0,1,.031-.1l.4,0,.126-.377A.054.054,0,0,1,1.7,12.148Z" transform="translate(-1.02 -8.162)"/><path class="c" d="M1.7,14.341l.126.377.4,0a.054.054,0,0,1,.031.1l-.32.236.12.379a.054.054,0,0,1-.082.06l-.324-.231-.324.231a.054.054,0,0,1-.082-.06l.12-.379-.32-.236a.054.054,0,0,1,.031-.1l.4,0,.126-.377A.054.054,0,0,1,1.7,14.341Z" transform="translate(-1.02 -8.38)"/><path class="c" d="M1.7,16.534l.126.377.4,0a.054.054,0,0,1,.031.1l-.32.236.12.379a.054.054,0,0,1-.082.06l-.324-.231-.324.231a.054.054,0,0,1-.082-.06l.12-.379-.32-.236a.054.054,0,0,1,.031-.1l.4,0,.126-.377A.054.054,0,0,1,1.7,16.534Z" transform="translate(-1.02 -8.599)"/><path class="c" d="M3.4,8.837l.126.377.4,0a.054.054,0,0,1,.031.1l-.32.236.12.379a.054.054,0,0,1-.082.06L3.35,9.758l-.324.231a.054.054,0,0,1-.082-.06l.12-.379-.32-.236a.054.054,0,0,1,.031-.1l.4,0L3.3,8.837A.054.054,0,0,1,3.4,8.837Z" transform="translate(-1.189 -7.832)"/><path class="c" d="M3.4,11.03l.126.377.4,0a.054.054,0,0,1,.031.1l-.32.236.12.379a.054.054,0,0,1-.082.06l-.324-.231-.324.231a.054.054,0,0,1-.082-.06l.12-.379-.32-.236a.054.054,0,0,1,.031-.1l.4,0L3.3,11.03A.054.054,0,0,1,3.4,11.03Z" transform="translate(-1.189 -8.05)"/><path class="c" d="M3.4,13.223l.126.377.4,0a.054.054,0,0,1,.031.1l-.32.236.12.379a.054.054,0,0,1-.082.06l-.324-.231-.324.231a.054.054,0,0,1-.082-.06l.12-.379-.32-.236a.054.054,0,0,1,.031-.1l.4,0,.126-.377A.054.054,0,0,1,3.4,13.223Z" transform="translate(-1.189 -8.269)"/><path class="c" d="M3.4,15.416l.126.377.4,0a.054.054,0,0,1,.031.1l-.32.236.12.379a.054.054,0,0,1-.082.06l-.324-.231-.324.231a.054.054,0,0,1-.082-.06l.12-.379-.32-.236a.054.054,0,0,1,.031-.1l.4,0,.126-.377A.054.054,0,0,1,3.4,15.416Z" transform="translate(-1.189 -8.488)"/><path class="c" d="M5.1,7.761l.126.377.4,0a.054.054,0,0,1,.031.1l-.32.236.12.379a.054.054,0,0,1-.082.06l-.324-.231-.324.231a.054.054,0,0,1-.082-.06l.12-.379-.32-.236a.054.054,0,0,1,.031-.1l.4,0L5,7.761A.054.054,0,0,1,5.1,7.761Z" transform="translate(-1.359 -7.725)"/><path class="c" d="M5.1,9.955l.126.377.4,0a.054.054,0,0,1,.031.1l-.32.236.12.379a.054.054,0,0,1-.082.06l-.324-.231-.324.231a.054.054,0,0,1-.082-.06l.12-.379-.32-.236a.054.054,0,0,1,.031-.1l.4,0L5,9.955A.054.054,0,0,1,5.1,9.955Z" transform="translate(-1.359 -7.943)"/><path class="c" d="M5.1,12.148l.126.377.4,0a.054.054,0,0,1,.031.1l-.32.236.12.379a.054.054,0,0,1-.082.06l-.324-.231-.324.231a.054.054,0,0,1-.082-.06l.12-.379-.32-.236a.054.054,0,0,1,.031-.1l.4,0L5,12.148A.054.054,0,0,1,5.1,12.148Z" transform="translate(-1.359 -8.162)"/><path class="c" d="M5.1,14.341l.126.377.4,0a.054.054,0,0,1,.031.1l-.32.236.12.379a.054.054,0,0,1-.082.06l-.324-.231-.324.231a.054.054,0,0,1-.082-.06l.12-.379-.32-.236a.054.054,0,0,1,.031-.1l.4,0L5,14.341A.054.054,0,0,1,5.1,14.341Z" transform="translate(-1.359 -8.38)"/><path class="c" d="M5.1,16.534l.126.377.4,0a.054.054,0,0,1,.031.1l-.32.236.12.379a.054.054,0,0,1-.082.06l-.324-.231-.324.231a.054.054,0,0,1-.082-.06l.12-.379-.32-.236a.054.054,0,0,1,.031-.1l.4,0L5,16.534A.054.054,0,0,1,5.1,16.534Z" transform="translate(-1.359 -8.599)"/><path class="c" d="M6.805,8.837l.126.377.4,0a.054.054,0,0,1,.031.1l-.32.236.12.379a.054.054,0,0,1-.082.06l-.324-.231-.324.231a.054.054,0,0,1-.082-.06l.12-.379-.32-.236a.054.054,0,0,1,.031-.1l.4,0L6.7,8.837A.054.054,0,0,1,6.805,8.837Z" transform="translate(-1.529 -7.832)"/><path class="c" d="M6.805,11.03l.126.377.4,0a.054.054,0,0,1,.031.1l-.32.236.12.379a.054.054,0,0,1-.082.06l-.324-.231-.324.231a.054.054,0,0,1-.082-.06l.12-.379-.32-.236a.054.054,0,0,1,.031-.1l.4,0L6.7,11.03A.054.054,0,0,1,6.805,11.03Z" transform="translate(-1.529 -8.05)"/><path class="c" d="M6.805,13.223l.126.377.4,0a.054.054,0,0,1,.031.1l-.32.236.12.379a.054.054,0,0,1-.082.06l-.324-.231-.324.231a.054.054,0,0,1-.082-.06l.12-.379-.32-.236a.054.054,0,0,1,.031-.1l.4,0,.126-.377A.054.054,0,0,1,6.805,13.223Z" transform="translate(-1.529 -8.269)"/><path class="c" d="M6.805,15.416l.126.377.4,0a.054.054,0,0,1,.031.1l-.32.236.12.379a.054.054,0,0,1-.082.06l-.324-.231-.324.231a.054.054,0,0,1-.082-.06l.12-.379-.32-.236a.054.054,0,0,1,.031-.1l.4,0,.126-.377A.054.054,0,0,1,6.805,15.416Z" transform="translate(-1.529 -8.488)"/><path class="c" d="M8.508,7.761l.126.377.4,0a.054.054,0,0,1,.031.1l-.32.236.12.379a.054.054,0,0,1-.082.06l-.324-.231-.324.231a.054.054,0,0,1-.082-.06l.12-.379-.32-.236a.054.054,0,0,1,.031-.1l.4,0,.126-.377A.054.054,0,0,1,8.508,7.761Z" transform="translate(-1.698 -7.725)"/><path class="c" d="M8.508,9.955l.126.377.4,0a.054.054,0,0,1,.031.1l-.32.236.12.379a.054.054,0,0,1-.082.06l-.324-.231-.324.231a.054.054,0,0,1-.082-.06l.12-.379-.32-.236a.054.054,0,0,1,.031-.1l.4,0,.126-.377A.054.054,0,0,1,8.508,9.955Z" transform="translate(-1.698 -7.943)"/><path class="c" d="M8.508,12.148l.126.377.4,0a.054.054,0,0,1,.031.1l-.32.236.12.379a.054.054,0,0,1-.082.06l-.324-.231-.324.231a.054.054,0,0,1-.082-.06l.12-.379-.32-.236a.054.054,0,0,1,.031-.1l.4,0,.126-.377A.054.054,0,0,1,8.508,12.148Z" transform="translate(-1.698 -8.162)"/><path class="c" d="M8.508,14.341l.126.377.4,0a.054.054,0,0,1,.031.1l-.32.236.12.379a.054.054,0,0,1-.082.06l-.324-.231-.324.231a.054.054,0,0,1-.082-.06l.12-.379-.32-.236a.054.054,0,0,1,.031-.1l.4,0,.126-.377A.054.054,0,0,1,8.508,14.341Z" transform="translate(-1.698 -8.38)"/><path class="c" d="M8.508,16.534l.126.377.4,0a.054.054,0,0,1,.031.1l-.32.236.12.379a.054.054,0,0,1-.082.06l-.324-.231-.324.231a.054.054,0,0,1-.082-.06l.12-.379-.32-.236a.054.054,0,0,1,.031-.1l.4,0,.126-.377A.054.054,0,0,1,8.508,16.534Z" transform="translate(-1.698 -8.599)"/><path class="c" d="M10.21,8.837l.126.377.4,0a.054.054,0,0,1,.031.1l-.32.236.12.379a.054.054,0,0,1-.082.06l-.324-.231-.324.231a.054.054,0,0,1-.082-.06l.12-.379-.32-.236a.054.054,0,0,1,.031-.1l.4,0,.126-.377A.054.054,0,0,1,10.21,8.837Z" transform="translate(-1.868 -7.832)"/><path class="c" d="M10.21,11.03l.126.377.4,0a.054.054,0,0,1,.031.1l-.32.236.12.379a.054.054,0,0,1-.082.06l-.324-.231-.324.231a.054.054,0,0,1-.082-.06l.12-.379-.32-.236a.054.054,0,0,1,.031-.1l.4,0,.126-.377A.054.054,0,0,1,10.21,11.03Z" transform="translate(-1.868 -8.05)"/><path class="c" d="M10.21,13.223l.126.377.4,0a.054.054,0,0,1,.031.1l-.32.236.12.379a.054.054,0,0,1-.082.06l-.324-.231-.324.231a.054.054,0,0,1-.082-.06l.12-.379-.32-.236a.054.054,0,0,1,.031-.1l.4,0,.126-.377A.054.054,0,0,1,10.21,13.223Z" transform="translate(-1.868 -8.269)"/><path class="c" d="M10.21,15.416l.126.377.4,0a.054.054,0,0,1,.031.1l-.32.236.12.379a.054.054,0,0,1-.082.06l-.324-.231-.324.231a.054.054,0,0,1-.082-.06l.12-.379-.32-.236a.054.054,0,0,1,.031-.1l.4,0,.126-.377A.054.054,0,0,1,10.21,15.416Z" transform="translate(-1.868 -8.488)"/><path class="c" d="M11.912,7.761l.126.377.4,0a.054.054,0,0,1,.031.1l-.32.236.12.379a.054.054,0,0,1-.082.06l-.324-.231-.324.231a.054.054,0,0,1-.082-.06l.12-.379-.32-.236a.054.054,0,0,1,.031-.1l.4,0,.126-.377A.054.054,0,0,1,11.912,7.761Z" transform="translate(-2.037 -7.725)"/><path class="c" d="M11.912,9.955l.126.377.4,0a.054.054,0,0,1,.031.1l-.32.236.12.379a.054.054,0,0,1-.082.06l-.324-.231-.324.231a.054.054,0,0,1-.082-.06l.12-.379-.32-.236a.054.054,0,0,1,.031-.1l.4,0,.126-.377A.054.054,0,0,1,11.912,9.955Z" transform="translate(-2.037 -7.943)"/><path class="c" d="M11.912,12.148l.126.377.4,0a.054.054,0,0,1,.031.1l-.32.236.12.379a.054.054,0,0,1-.082.06l-.324-.231-.324.231a.054.054,0,0,1-.082-.06l.12-.379-.32-.236a.054.054,0,0,1,.031-.1l.4,0,.126-.377A.054.054,0,0,1,11.912,12.148Z" transform="translate(-2.037 -8.162)"/><path class="c" d="M11.912,14.341l.126.377.4,0a.054.054,0,0,1,.031.1l-.32.236.12.379a.054.054,0,0,1-.082.06l-.324-.231-.324.231a.054.054,0,0,1-.082-.06l.12-.379-.32-.236a.054.054,0,0,1,.031-.1l.4,0,.126-.377A.054.054,0,0,1,11.912,14.341Z" transform="translate(-2.037 -8.38)"/><path class="c" d="M11.912,16.534l.126.377.4,0a.054.054,0,0,1,.031.1l-.32.236.12.379a.054.054,0,0,1-.082.06l-.324-.231-.324.231a.054.054,0,0,1-.082-.06l.12-.379-.32-.236a.054.054,0,0,1,.031-.1l.4,0,.126-.377A.054.054,0,0,1,11.912,16.534Z" transform="translate(-2.037 -8.599)"/><path class="c" d="M13.615,8.837l.126.377.4,0a.054.054,0,0,1,.031.1l-.32.236.12.379a.054.054,0,0,1-.082.06l-.324-.231-.324.231a.054.054,0,0,1-.082-.06l.12-.379-.32-.236a.054.054,0,0,1,.031-.1l.4,0,.126-.377A.054.054,0,0,1,13.615,8.837Z" transform="translate(-2.207 -7.832)"/><path class="c" d="M13.615,11.03l.126.377.4,0a.054.054,0,0,1,.031.1l-.32.236.12.379a.054.054,0,0,1-.082.06l-.324-.231-.324.231a.054.054,0,0,1-.082-.06l.12-.379-.32-.236a.054.054,0,0,1,.031-.1l.4,0,.126-.377A.054.054,0,0,1,13.615,11.03Z" transform="translate(-2.207 -8.05)"/><path class="c" d="M13.615,13.223l.126.377.4,0a.054.054,0,0,1,.031.1l-.32.236.12.379a.054.054,0,0,1-.082.06l-.324-.231-.324.231a.054.054,0,0,1-.082-.06l.12-.379-.32-.236a.054.054,0,0,1,.031-.1l.4,0,.126-.377A.054.054,0,0,1,13.615,13.223Z" transform="translate(-2.207 -8.269)"/><path class="c" d="M13.615,15.416l.126.377.4,0a.054.054,0,0,1,.031.1l-.32.236.12.379a.054.054,0,0,1-.082.06l-.324-.231-.324.231a.054.054,0,0,1-.082-.06l.12-.379-.32-.236a.054.054,0,0,1,.031-.1l.4,0,.126-.377A.054.054,0,0,1,13.615,15.416Z" transform="translate(-2.207 -8.488)"/><path class="c" d="M15.317,7.761l.126.377.4,0a.054.054,0,0,1,.031.1l-.32.236.12.379a.054.054,0,0,1-.082.06l-.324-.231-.324.231a.054.054,0,0,1-.082-.06l.12-.379-.32-.236a.054.054,0,0,1,.031-.1l.4,0,.126-.377A.054.054,0,0,1,15.317,7.761Z" transform="translate(-2.377 -7.725)"/><path class="c" d="M15.317,9.955l.126.377.4,0a.054.054,0,0,1,.031.1l-.32.236.12.379a.054.054,0,0,1-.082.06l-.324-.231-.324.231a.054.054,0,0,1-.082-.06l.12-.379-.32-.236a.054.054,0,0,1,.031-.1l.4,0,.126-.377A.054.054,0,0,1,15.317,9.955Z" transform="translate(-2.377 -7.943)"/><path class="c" d="M15.317,12.148l.126.377.4,0a.054.054,0,0,1,.031.1l-.32.236.12.379a.054.054,0,0,1-.082.06l-.324-.231-.324.231a.054.054,0,0,1-.082-.06l.12-.379-.32-.236a.054.054,0,0,1,.031-.1l.4,0,.126-.377A.054.054,0,0,1,15.317,12.148Z" transform="translate(-2.377 -8.162)"/><path class="c" d="M15.317,14.341l.126.377.4,0a.054.054,0,0,1,.031.1l-.32.236.12.379a.054.054,0,0,1-.082.06l-.324-.231-.324.231a.054.054,0,0,1-.082-.06l.12-.379-.32-.236a.054.054,0,0,1,.031-.1l.4,0,.126-.377A.054.054,0,0,1,15.317,14.341Z" transform="translate(-2.377 -8.38)"/><path class="c" d="M15.317,16.534l.126.377.4,0a.054.054,0,0,1,.031.1l-.32.236.12.379a.054.054,0,0,1-.082.06l-.324-.231-.324.231a.054.054,0,0,1-.082-.06l.12-.379-.32-.236a.054.054,0,0,1,.031-.1l.4,0,.126-.377A.054.054,0,0,1,15.317,16.534Z" transform="translate(-2.377 -8.599)"/></g></g></g></svg>