<svg xmlns="http://www.w3.org/2000/svg" width="40" height="40" viewBox="0 0 40 40"><defs><style>.a{fill:#1a62f5;}.b{fill:#fff;}</style></defs><circle class="a" cx="20" cy="20" r="20"/><g transform="translate(11 13)"><g transform="translate(2.461)"><path class="b" d="M124.691,0a3.691,3.691,0,1,0,3.691,3.691A3.7,3.7,0,0,0,124.691,0Z" transform="translate(-121)"/></g><g transform="translate(0 8.203)"><path class="b" d="M41.745,301.591A5.263,5.263,0,0,0,37.973,300H36.332a5.263,5.263,0,0,0-3.772,1.591,5.379,5.379,0,0,0-1.56,3.8.41.41,0,0,0,.41.41H42.895a.41.41,0,0,0,.41-.41A5.379,5.379,0,0,0,41.745,301.591Z" transform="translate(-31 -300)"/></g><path class="b" d="M7.285,3.137a.387.387,0,0,0-.334-.267L4.843,2.679,4.009.728a.388.388,0,0,0-.714,0L2.462,2.679.353,2.87a.389.389,0,0,0-.22.679l1.594,1.4-.47,2.07a.388.388,0,0,0,.577.419L3.652,6.35,5.47,7.437a.388.388,0,0,0,.578-.419l-.47-2.07,1.594-1.4A.388.388,0,0,0,7.285,3.137Zm0,0" transform="translate(11.2 -0.492)"/></g></svg>